# xmcd
#
# Track frame offsets:
# 150
# 11848
# 26661
# 41817
# 54411
# 68124
# 80409
# 93741
# 109315
# 120955
# 134907
# 147849
# 161223
# 174229
# 187351
# 198986
# 211302
# 224391
# 240626
# 252588
# 266738
# 295416
# 308018
# 321593
# 334129
#
# Disc length: 4653 seconds
#
#
# Revision: 2
# Processed by: cddbd v1.5.1PL0 Copyright (c) Steve Scherf et al.
# Submitted via: FreeRIP 2.942 
#
DISCID=91122b19
DTITLE=Various Artist - L'histoire du Jazz Vocal - CD 11
DYEAR=1900
DGENRE=Jazz
TTITLE0=41 Sister Rosetta Tharpe - Rock Me (1941)
TTITLE1=41 Lena Horne - You're My Thrill (1941-01-07)
TTITLE2=41 Una Mae Carlisle - Blitzkrieg Baby (1941-03-10)
TTITLE3=41 Big Bill Broonzy - I Feel So Good (1941)
TTITLE4=41 Ella Fitzgerald - My Man (1941-03-31)
TTITLE5=41 Dick Haymes - I'll Get By (1941-04-07)
TTITLE6=41 Lil Green - Why Don't You Do Right ? (1941-04-23)
TTITLE7=41 Tex Beneke and Paula Kelly and Glenn Miller and Modernaires - Chattanooga Choo Choo (1941-05-07)
TTITLE8=41 Champion Jack Dupree - That's All Right (1941)
TTITLE9=41 Anita O'Day and Roy Elridge - Let Me Off Uptown (1941-05-08)
TTITLE10=41 Billie Holiday - Am I Blue (1941-05-09)
TTITLE11=41 Billie Holiday - God Bless The Child (1941-05-09)
TTITLE12=41 Big Maceo - Worried Life Blues (1941)
TTITLE13=41 Helen Forrest and Benny Goodman Orchestra - When The Sun Comes Out (1941-06-04)
TTITLE14=41 Sister Rosetta Tharpe and Lucky Millinder Orchestra - Trouble In Mind (1941-06-27)
TTITLE15=41 Fats Waller - Come And Get It (1941-07-01)
TTITLE16=41 Herb Jeffries and Duke Ellington Orchestra - Jump For Joy (1941-07-12)
TTITLE17=41 Art Tatum - Toledo Blues (1941-07-26)
TTITLE18=41 Big Joe Turner - Blues On Central Avenue (1941-09-08)
TTITLE19=41 Ivie Anderson and Duke Ellington Orchestra - Rocks On My Bed (1941-09-26)
TTITLE20=41 Hot Lips Page and Artie Shaw Orchestra - St. James Infirmary (1941-11-12)
TTITLE21=41 Brownie McGhee - Unfair Blues (1941)
TTITLE22=41 Walter Brown - New Confessin' The Blues (1941-11-18)
TTITLE23=41 Memphis Slim - Whiskey And Gin Blues (1941-12-04)
TTITLE24=41 Lena Horne - Stormy Weather (1941-12-15)
EXTD=
EXTT0=
EXTT1=
EXTT2=
EXTT3=
EXTT4=
EXTT5=
EXTT6=
EXTT7=
EXTT8=
EXTT9=
EXTT10=
EXTT11=
EXTT12=
EXTT13=
EXTT14=
EXTT15=
EXTT16=
EXTT17=
EXTT18=
EXTT19=
EXTT20=
EXTT21=
EXTT22=
EXTT23=
EXTT24=
PLAYORDER=
